TITLE ""
FILE "1Q_t_1610-1619.mp3" MP3
  TRACK 01 AUDIO
    TITLE "1Q_t_1610-1619_01"
    INDEX 01 00:00:00
  TRACK 02 AUDIO
    TITLE "1Q_t_1610-1619_02"
    INDEX 01 00:01:14
  TRACK 03 AUDIO
    TITLE "1Q_t_1610-1619_03"
    INDEX 01 00:01:23
  TRACK 04 AUDIO
    TITLE "1Q_t_1610-1619_04"
    INDEX 01 00:04:36
  TRACK 05 AUDIO
    TITLE "1Q_t_1610-1619_05"
    INDEX 01 00:04:41
  TRACK 06 AUDIO
    TITLE "1Q_t_1610-1619_06"
    INDEX 01 00:08:24
  TRACK 07 AUDIO
    TITLE "1Q_t_1610-1619_07"
    INDEX 01 00:08:67
  TRACK 08 AUDIO
    TITLE "1Q_t_1610-1619_08"
    INDEX 01 00:10:01
  TRACK 09 AUDIO
    TITLE "1Q_t_1610-1619_09"
    INDEX 01 00:10:09
  TRACK 10 AUDIO
    TITLE "1Q_t_1610-1619_10"
    INDEX 01 00:11:45
  TRACK 11 AUDIO
    TITLE "1Q_t_1610-1619_11"
    INDEX 01 00:11:53
  TRACK 12 AUDIO
    TITLE "1Q_t_1610-1619_12"
    INDEX 01 00:16:45
  TRACK 13 AUDIO
    TITLE "1Q_t_1610-1619_13"
    INDEX 01 00:17:13
  TRACK 14 AUDIO
    TITLE "1Q_t_1610-1619_14"
    INDEX 01 00:18:26
  TRACK 15 AUDIO
    TITLE "1Q_t_1610-1619_15"
    INDEX 01 00:18:38
  TRACK 16 AUDIO
    TITLE "1Q_t_1610-1619_16"
    INDEX 01 00:20:09
  TRACK 17 AUDIO
    TITLE "1Q_t_1610-1619_17"
    INDEX 01 00:20:17
  TRACK 18 AUDIO
    TITLE "1Q_t_1610-1619_18"
    INDEX 01 00:24:13
  TRACK 19 AUDIO
    TITLE "1Q_t_1610-1619_19"
    INDEX 01 00:24:58
  TRACK 20 AUDIO
    TITLE "1Q_t_1610-1619_20"
    INDEX 01 00:26:19
  TRACK 21 AUDIO
    TITLE "1Q_t_1610-1619_21"
    INDEX 01 00:26:27
  TRACK 22 AUDIO
    TITLE "1Q_t_1610-1619_22"
    INDEX 01 00:29:35
  TRACK 23 AUDIO
    TITLE "1Q_t_1610-1619_23"
    INDEX 01 00:29:41
  TRACK 24 AUDIO
    TITLE "1Q_t_1610-1619_24"
    INDEX 01 00:33:33
  TRACK 25 AUDIO
    TITLE "1Q_t_1610-1619_25"
    INDEX 01 00:34:03
  TRACK 26 AUDIO
    TITLE "1Q_t_1610-1619_26"
    INDEX 01 00:35:11
  TRACK 27 AUDIO
    TITLE "1Q_t_1610-1619_27"
    INDEX 01 00:35:18
  TRACK 28 AUDIO
    TITLE "1Q_t_1610-1619_28"
    INDEX 01 00:36:49
  TRACK 29 AUDIO
    TITLE "1Q_t_1610-1619_29"
    INDEX 01 00:36:55
  TRACK 30 AUDIO
    TITLE "1Q_t_1610-1619_30"
    INDEX 01 00:41:68
  TRACK 31 AUDIO
    TITLE "1Q_t_1610-1619_31"
    INDEX 01 00:42:38
  TRACK 32 AUDIO
    TITLE "1Q_t_1610-1619_32"
    INDEX 01 00:43:47
  TRACK 33 AUDIO
    TITLE "1Q_t_1610-1619_33"
    INDEX 01 00:43:55
  TRACK 34 AUDIO
    TITLE "1Q_t_1610-1619_34"
    INDEX 01 00:46:69
  TRACK 35 AUDIO
    TITLE "1Q_t_1610-1619_35"
    INDEX 01 00:46:75
  TRACK 36 AUDIO
    TITLE "1Q_t_1610-1619_36"
    INDEX 01 00:50:55
  TRACK 37 AUDIO
    TITLE "1Q_t_1610-1619_37"
    INDEX 01 00:51:25
  TRACK 38 AUDIO
    TITLE "1Q_t_1610-1619_38"
    INDEX 01 00:52:33
  TRACK 39 AUDIO
    TITLE "1Q_t_1610-1619_39"
    INDEX 01 00:52:40
  TRACK 40 AUDIO
    TITLE "1Q_t_1610-1619_40"
    INDEX 01 00:56:60
  TRACK 41 AUDIO
    TITLE "1Q_t_1610-1619_41"
    INDEX 01 00:56:66
  TRACK 42 AUDIO
    TITLE "1Q_t_1610-1619_42"
    INDEX 01 01:02:15
  TRACK 43 AUDIO
    TITLE "1Q_t_1610-1619_43"
    INDEX 01 01:02:58
  TRACK 44 AUDIO
    TITLE "1Q_t_1610-1619_44"
    INDEX 01 01:03:58
  TRACK 45 AUDIO
    TITLE "1Q_t_1610-1619_45"
    INDEX 01 01:03:68
  TRACK 46 AUDIO
    TITLE "1Q_t_1610-1619_46"
    INDEX 01 01:06:46
  TRACK 47 AUDIO
    TITLE "1Q_t_1610-1619_47"
    INDEX 01 01:06:52
  TRACK 48 AUDIO
    TITLE "1Q_t_1610-1619_48"
    INDEX 01 01:10:07
  TRACK 49 AUDIO
    TITLE "1Q_t_1610-1619_49"
    INDEX 01 01:10:52
  TRACK 50 AUDIO
    TITLE "1Q_t_1610-1619_50"
    INDEX 01 01:11:46
  TRACK 51 AUDIO
    TITLE "1Q_t_1610-1619_51"
    INDEX 01 01:11:53
  TRACK 52 AUDIO
    TITLE "1Q_t_1610-1619_52"
    INDEX 01 01:14:54
  TRACK 53 AUDIO
    TITLE "1Q_t_1610-1619_53"
    INDEX 01 01:14:60
  TRACK 54 AUDIO
    TITLE "1Q_t_1610-1619_54"
    INDEX 01 01:20:49
  TRACK 55 AUDIO
    TITLE "1Q_t_1610-1619_55"
    INDEX 01 01:21:15
  TRACK 56 AUDIO
    TITLE "1Q_t_1610-1619_56"
    INDEX 01 01:22:18
  TRACK 57 AUDIO
    TITLE "1Q_t_1610-1619_57"
    INDEX 01 01:22:26
  TRACK 58 AUDIO
    TITLE "1Q_t_1610-1619_58"
    INDEX 01 01:25:18
  TRACK 59 AUDIO
    TITLE "1Q_t_1610-1619_59"
    INDEX 01 01:25:24
  TRACK 60 AUDIO
    TITLE "1Q_t_1610-1619_60"
    INDEX 01 01:29:53
